# xmcd CD database file
#
# Track frame offsets:
#	150
#	7695
#	15605
#	27456
#	35260
#	43838
#	52650
#	75188
#	88526
#	111009
#	126818
#	181276
#	190660
#	205478
#	216968
#	223258
#	226864
#
# Disc length: 3190 seconds
#
# Revision: 4
# Processed by: cddbd v1.5.2PL0 Copyright (c) Steve Scherf et al.
# Submitted via: CDex 1.51
#
DISCID=d30c7411
DTITLE=200 ans de Musique à Versailles - Vol.06 - Le Triomphe de la piété baroque
DYEAR=2007
DGENRE=Baroque
TTITLE0=François Couperin - Troisième Leçon de Ténèbres pour le Mercredi Saint à deux voix - Yod
TTITLE1=François Couperin - Troisième Leçon de Ténèbres pour le Mercredi Saint à deux voix - Caph
TTITLE2=François Couperin - Troisième Leçon de Ténèbres pour le Mercredi Saint à deux voix - Lamed
TTITLE3=François Couperin - Troisième Leçon de Ténèbres pour le Mercredi Saint à deux voix - Mem
TTITLE4=François Couperin - Troisième Leçon de Ténèbres pour le Mercredi Saint à deux voix - Nun
TTITLE5=François Couperin - Troisième Leçon de Ténèbres pour le Mercredi Saint à deux voix - Jerusalem convertere
TTITLE6=Marc-Antoine Charpentier - Litanies de la Vierge - Kyrie eleison
TTITLE7=Marc-Antoine Charpentier - Litanies de la Vierge - Speculum justitiae
TTITLE8=Marc-Antoine Charpentier - Litanies de la Vierge - Salus infirmorum
TTITLE9=Marc-Antoine Charpentier - Litanies de la Vierge - Agnus Dei
TTITLE10=Marc-Antoine Charpentier - Miserere - Miserere  mei
TTITLE11=Marc-Antoine Charpentier - Miserere - Averte faciem tuam
TTITLE12=Marc-Antoine Charpentier - Miserere - Ne progicias me a facie
TTITLE13=Marc-Antoine Charpentier - Miserere - Libera me
TTITLE14=Marc-Antoine Charpentier - Miserere - Sacrificium Deo spiritus
TTITLE15=Marc-Antoine Charpentier - Miserere - Benigne fac Domine
TTITLE16=Marc-Antoine Charpentier - Miserere - Tunc acceptabis sacrificium
EXTD=YEAR: 2007
EXTT0=
EXTT1=
EXTT2=
EXTT3=
EXTT4=
EXTT5=
EXTT6=
EXTT7=
EXTT8=
EXTT9=
EXTT10=
EXTT11=
EXTT12=
EXTT13=
EXTT14=
EXTT15=
EXTT16=
PLAYORDER=
